HIERARCHY
ROOT Hips
{
	OFFSET 0.00000 0.00000 0.00000
	CHANNELS 6 Xposition Yposition Zposition Zrotation Yrotation Xrotation 
	JOINT LHipJoint
	{
		OFFSET 0 0 0
		CHANNELS 3 Zrotation Yrotation Xrotation
		JOINT LeftUpLeg
		{
			OFFSET 1.41496 -1.84582 0.78394
			CHANNELS 3 Zrotation Yrotation Xrotation
			JOINT LeftLeg
			{
				OFFSET 2.58040 -7.08960 0.00000
				CHANNELS 3 Zrotation Yrotation Xrotation
				JOINT LeftFoot
				{
					OFFSET 2.64719 -7.27309 0.00000
					CHANNELS 3 Zrotation Yrotation Xrotation
					JOINT LeftToeBase
					{
						OFFSET 0.20718 -0.56921 2.20259
						CHANNELS 3 Zrotation Yrotation Xrotation
						End Site
						{
							OFFSET 0.00000 -0.00000 1.14243
						}
					}
				}
			}
		}
	}
	JOINT RHipJoint
	{
		OFFSET 0 0 0
		CHANNELS 3 Zrotation Yrotation Xrotation
		JOINT RightUpLeg
		{
			OFFSET -1.40551 -1.84582 0.78394
			CHANNELS 3 Zrotation Yrotation Xrotation
			JOINT RightLeg
			{
				OFFSET -2.56572 -7.04926 0.00000
				CHANNELS 3 Zrotation Yrotation Xrotation
				JOINT RightFoot
				{
					OFFSET -2.57974 -7.08778 0.00000
					CHANNELS 3 Zrotation Yrotation Xrotation
					JOINT RightToeBase
					{
						OFFSET -0.26704 -0.73369 2.20815
						CHANNELS 3 Zrotation Yrotation Xrotation
						End Site
						{
							OFFSET -0.00000 -0.00000 1.16246
						}
					}
				}
			}
		}
	}
	JOINT LowerBack
	{
		OFFSET 0 0 0
		CHANNELS 3 Zrotation Yrotation Xrotation
		JOINT Spine
		{
			OFFSET -0.04690 2.05196 -0.07017
			CHANNELS 3 Zrotation Yrotation Xrotation
			JOINT Spine1
			{
				OFFSET 0.04085 2.05260 0.00800
				CHANNELS 3 Zrotation Yrotation Xrotation
				JOINT Neck
				{
					OFFSET 0 0 0
					CHANNELS 3 Zrotation Yrotation Xrotation
					JOINT Neck1
					{
						OFFSET -0.03582 1.80995 0.19301
						CHANNELS 3 Zrotation Yrotation Xrotation
						JOINT Head
						{
							OFFSET 0.00952 1.80195 -0.36389
							CHANNELS 3 Zrotation Yrotation Xrotation
							End Site
							{
								OFFSET 0.00392 1.85062 -0.14494
							}
						}
					}
				}
				JOINT LeftShoulder
				{
					OFFSET 0 0 0
					CHANNELS 3 Zrotation Yrotation Xrotation
					JOINT LeftArm
					{
						OFFSET 3.55224 1.39726 -0.13667
						CHANNELS 3 Zrotation Yrotation Xrotation
						JOINT LeftForeArm
						{
							OFFSET 5.14507 -0.00000 -0.00000
							CHANNELS 3 Zrotation Yrotation Xrotation
							JOINT LeftHand
							{
								OFFSET 3.50646 -0.00000 0.00000
								CHANNELS 3 Zrotation Yrotation Xrotation
								JOINT LeftFingerBase
								{
									OFFSET 0 0 0
									CHANNELS 3 Zrotation Yrotation Xrotation
									JOINT LeftHandIndex1
									{
										OFFSET 0.62997 -0.00000 0.00000
										CHANNELS 3 Zrotation Yrotation Xrotation
										End Site
										{
											OFFSET 0.50790 -0.00000 0.00000
										}
									}
								}
								JOINT LThumb
								{
									OFFSET 0 0 0
									CHANNELS 3 Zrotation Yrotation Xrotation
									End Site
									{
										OFFSET 0.51565 -0.00000 0.51565
									}
								}
							}
						}
					}
				}
				JOINT RightShoulder
				{
					OFFSET 0 0 0
					CHANNELS 3 Zrotation Yrotation Xrotation
					JOINT RightArm
					{
						OFFSET -3.06467 1.61290 -0.28813
						CHANNELS 3 Zrotation Yrotation Xrotation
						JOINT RightForeArm
						{
							OFFSET -5.23200 -0.00000 -0.00000
							CHANNELS 3 Zrotation Yrotation Xrotation
							JOINT RightHand
							{
								OFFSET -3.65641 -0.00000 0.00000
								CHANNELS 3 Zrotation Yrotation Xrotation
								JOINT RightFingerBase
								{
									OFFSET 0 0 0
									CHANNELS 3 Zrotation Yrotation Xrotation
									JOINT RightHandIndex1
									{
										OFFSET -0.65681 -0.00000 0.00000
										CHANNELS 3 Zrotation Yrotation Xrotation
										End Site
										{
											OFFSET -0.52953 -0.00000 0.00000
										}
									}
								}
								JOINT RThumb
								{
									OFFSET 0 0 0
									CHANNELS 3 Zrotation Yrotation Xrotation
									End Site
									{
										OFFSET -0.53762 -0.00000 0.53762
									}
								}
							}
						}
					}
				}
			}
		}
	}
}
MOTION
Frames: 12
Frame Time: .0083333
18.4593 15.323 41.9051 0 0 0 0 0 0 -21 0 0 0 0 0 0 0 0 0 0 0 0 0 0 21 0 0 0 0 0 0 0 0 0 0 0 0 0 0 0 0 0 0 0 0 0 0 -16 0 0 21 0 0 11 0 0 0 -8 0 0 0 0 0 0 0 0 0 0 0 0 0 0 0 0 0 0 0 0 8 0 0 0 0 0 0 0 0 0 0 0 0 0 0 0 0 0
18.4593 15.3230 41.9051 179.2950 -19.1085 -151.8210 0.0000 0.0000 0.0000 -19.0863 -9.1546 -14.3164 8.7101 16.6175 55.0822 0.3092 -2.0841 11.4773 0.4338 -4.2264 -11.7145 0.0000 0.0000 0.0000 11.4546 7.8332 -55.5162 -12.9507 -18.7643 68.9722 -1.8008 -5.2007 -27.6582 -5.5252 13.9519 -43.0452 -0.5836 -0.7533 16.9867 3.2449 -0.8692 -1.4077 4.1381 -0.2968 -11.0709 -0.8244 0.3537 -19.3186 -6.6855 0.9811 4.9311 -1.8946 -0.1567 4.6119 0.0000 -0.0000 0.0000 -86.5181 5.8394 48.4164 60.2228 -56.3690 -34.5266 -0.0000 0.0000 -3.5690 18.0328 -2.5525 -0.8306 -7.1250 0.0000 -0.0000 -6.5604 27.2794 2.8412 0.0000 -0.0000 0.0000 70.2462 -11.4678 35.5008 -45.6369 51.0767 -22.7332 0.0000 -0.0000 -0.2383 -23.0614 -5.6601 2.4044 7.1250 -0.0000 -0.0000 3.0619 -36.1136 0.6697
18.3790 15.2948 41.6607 179.8720 -18.4295 -151.7440 0.0000 0.0000 0.0000 -18.5675 -8.5944 -17.6448 10.1390 17.4873 59.9520 0.3769 -1.1438 12.0681 0.1351 -2.3688 -6.5260 0.0000 0.0000 0.0000 11.9092 8.1338 -54.7190 -12.9019 -18.7464 68.8205 -1.8468 -5.0905 -27.9118 -5.7006 14.1318 -43.7678 0.0290 -0.3028 16.9949 3.2410 -0.1659 -1.1954 3.5941 -0.0141 -10.8901 -1.0248 0.2463 -18.9749 -6.9314 0.8442 4.5059 -1.9483 -0.2384 4.4238 -0.0000 -0.0000 0.0000 -86.9664 6.2362 46.2305 57.7953 -55.6932 -32.5131 -0.0000 0.0000 -4.7774 17.8897 -2.0002 -0.6455 -7.1250 0.0000 -0.0000 -6.6997 27.8573 2.8104 -0.0000 -0.0000 0.0000 70.5102 -9.5476 35.5272 -45.5949 51.0566 -22.7005 0.0000 -0.0000 -0.2108 -23.2803 -5.1330 2.2045 7.1250 -0.0000 -0.0000 2.8398 -35.5532 0.6598
18.3033 15.2960 41.3838 180.2990 -18.4047 -152.1700 0.0000 0.0000 0.0000 -17.8019 -8.2129 -20.1718 11.5159 18.1784 64.4459 0.2599 -0.9205 10.0086 0.1957 -2.8485 -7.8572 0.0000 0.0000 0.0000 12.7430 7.7628 -52.9600 -12.7664 -18.6962 68.3984 -1.9213 -5.1709 -28.4519 -5.8441 14.2756 -44.3530 0.7615 -0.0433 17.5464 3.2675 0.3121 -0.9255 3.0852 0.1567 -10.9298 -1.1771 0.0855 -18.6912 -7.1530 0.6442 4.2903 -2.0083 -0.3500 4.3085 0.0000 -0.0000 0.0000 -87.3902 6.7556 43.8072 55.0575 -54.8422 -30.2630 -0.0000 0.0000 -5.8466 17.7016 -1.7991 -0.5741 -7.1250 0.0000 -0.0000 -6.8560 28.0681 2.8425 0.0000 -0.0000 0.0000 70.7961 -7.6616 35.6784 -45.7592 51.1350 -22.8283 0.0000 -0.0000 -0.3945 -22.3211 -3.5794 1.4683 7.1250 -0.0000 -0.0000 3.5259 -33.8327 0.9673
18.2304 15.2721 41.1087 180.7530 -18.3536 -152.7050 0.0000 0.0000 0.0000 -16.9793 -7.7544 -22.8016 12.9272 18.7557 68.8993 0.1777 -0.7652 8.2780 0.8325 -5.8206 -16.2648 0.0000 0.0000 0.0000 13.5965 7.3605 -51.1575 -12.6543 -18.6537 68.0481 -2.0156 -5.2197 -29.0937 -6.0018 14.4300 -44.9888 1.4585 0.2411 18.2099 3.2922 0.8260 -0.7041 2.5824 0.3466 -11.0763 -1.3180 -0.0466 -18.3960 -7.4408 0.4953 4.1959 -2.0863 -0.4416 4.2316 0.0000 0.0000 0.0000 -87.7895 7.4193 41.2356 52.3776 -53.9106 -28.0844 -0.0000 0.0000 -6.6892 18.0398 -0.8113 -0.2642 -7.1250 0.0000 -0.0000 -6.6551 29.0982 2.5946 0.0000 0.0000 0.0000 71.0691 -5.6293 36.0239 -46.0190 51.2580 -23.0309 0.0000 -0.0000 -0.1291 -20.8501 -4.2339 1.6106 7.1250 -0.0000 -0.0000 4.7815 -34.4786 1.2384
18.1613 15.2483 40.8291 181.2880 -18.3956 -153.2530 0.0000 0.0000 0.0000 -15.9110 -7.2030 -25.5511 14.3152 19.2069 73.1649 0.1012 -0.8013 6.3579 0.7751 -5.6214 -15.6898 0.0000 0.0000 0.0000 14.5807 6.9227 -49.3234 -12.5118 -18.5987 67.6021 -2.1407 -4.7903 -29.6756 -6.0357 14.4628 -45.1246 2.2150 0.5131 18.7802 3.3085 1.3360 -0.4647 2.0294 0.5286 -11.1329 -1.5464 -0.2511 -18.2552 -7.5455 0.2659 4.1788 -2.1013 -0.5659 4.1977 0.0000 0.0000 0.0000 -88.0197 8.0054 38.4224 49.6298 -52.8451 -25.8788 -0.0000 0.0000 -7.7623 17.8113 -0.2473 -0.0795 -7.1250 0.0000 -0.0000 -6.8714 29.6859 2.5832 0.0000 0.0000 0.0000 71.4275 -3.3341 36.4669 -46.5166 51.4902 -23.4196 0.0000 -0.0000 -0.0814 -21.8420 -2.9625 1.1867 7.1250 -0.0000 -0.0000 3.8763 -33.1534 1.1276
18.0972 15.2154 40.5485 181.7420 -18.4339 -153.7390 0.0000 0.0000 0.0000 -14.8246 -6.7177 -28.5852 15.7054 19.5519 77.3528 0.0507 -0.9261 4.7004 0.5476 -4.7408 -13.1708 0.0000 0.0000 0.0000 15.4911 6.4350 -47.4581 -12.3664 -18.5413 67.1456 -2.2670 -4.7810 -30.4569 -6.1116 14.5357 -45.4281 2.8034 0.7878 19.2653 3.3166 1.8191 -0.2690 1.5660 0.7091 -11.1798 -1.7329 -0.4350 -18.0919 -7.7327 0.0635 4.2132 -2.1465 -0.6825 4.1782 0.0000 -0.0000 0.0000 -88.1264 8.6586 35.4719 46.8077 -51.6239 -23.6476 -0.0000 0.0000 -8.6286 18.1245 0.2803 0.0918 -7.1250 0.0000 -0.0000 -6.6635 30.2394 2.4155 0.0000 -0.0000 0.0000 71.6441 -0.7270 37.2882 -46.7948 51.6181 -23.6375 0.0000 -0.0000 -0.5563 -21.8638 -2.5598 1.0267 7.1250 -0.0000 -0.0000 3.8334 -32.7213 1.1551
18.0339 15.1801 40.2573 182.0250 -18.6350 -154.1500 0.0000 0.0000 0.0000 -13.7738 -6.3921 -31.6645 17.0237 19.7863 81.2679 0.0118 -1.1298 2.7847 0.1300 -2.3242 -6.4025 0.0000 0.0000 0.0000 16.2851 5.7370 -45.6198 -12.2109 -18.4784 66.6557 -2.4180 -4.6524 -31.3089 -6.1501 14.5723 -45.5814 3.3086 1.0165 19.5470 3.2925 2.2178 -0.0868 1.1361 0.8576 -11.1165 -1.9896 -0.6863 -17.8454 -7.9082 -0.2256 4.2080 -2.1825 -0.8405 4.1305 0.0000 -0.0000 0.0000 -88.0292 9.3630 32.4801 43.9596 -50.2485 -21.4358 -0.0000 0.0000 -9.3489 19.0769 1.3148 0.4546 -7.1250 0.0000 -0.0000 -5.9854 31.3373 2.0090 0.0000 -0.0000 0.0000 71.8505 1.8199 38.1354 -47.8329 52.0832 -24.4538 0.0000 -0.0000 -0.9518 -21.8120 -2.7695 1.1078 7.1250 -0.0000 -0.0000 3.8884 -32.9452 1.1507
17.9719 15.1351 39.9597 182.1600 -18.6746 -154.3460 0.0000 0.0000 0.0000 -12.8879 -6.0302 -35.0722 18.2699 19.9281 84.9357 -0.0062 -1.5039 1.1548 0.1040 -2.0790 -5.7241 0.0000 0.0000 0.0000 16.8180 5.1579 -43.9278 -12.0427 -18.4086 66.1240 -2.5411 -4.8260 -32.1155 -6.2826 14.6967 -46.1056 3.5579 1.3118 19.6524 3.2048 2.6545 -0.0347 0.7713 1.0431 -11.1005 -2.3296 -0.9653 -17.7709 -8.0931 -0.4975 4.5186 -2.2118 -1.0050 4.2089 -0.0000 -0.0000 0.0000 -87.7148 10.2943 29.4903 41.1984 -48.7641 -19.3357 -0.0000 0.0000 -9.9419 19.4619 1.0893 0.3849 -7.1250 0.0000 -0.0000 -5.6634 31.1058 1.9316 -0.0000 -0.0000 0.0000 72.0632 4.1487 39.0165 -49.4614 52.7759 -25.7446 0.0000 -0.0000 -1.1670 -21.7682 -2.6298 1.0497 7.1250 -0.0000 -0.0000 3.9151 -32.7940 1.1730
17.9101 15.0890 39.6531 182.0530 -18.7223 -154.4630 0.0000 0.0000 0.0000 -12.2303 -5.7660 -38.5101 19.4003 19.9914 88.2464 0.0003 -0.9714 -0.7276 0.0542 -1.5025 -4.1326 0.0000 0.0000 0.0000 17.1012 4.4649 -42.2007 -11.8495 -18.3263 65.5111 -2.7572 -4.4501 -33.1766 -6.2325 14.6499 -45.9078 3.5774 1.6259 19.6927 3.0490 3.0672 -0.0365 0.4686 1.2326 -11.1110 -2.7605 -1.3036 -17.6960 -8.2267 -0.8156 4.9977 -2.2171 -1.1959 4.3390 -0.0000 0.0000 0.0000 -87.1063 11.3556 26.6848 38.5843 -47.2084 -17.3931 -0.0000 0.0000 -10.5279 20.1460 0.7786 0.2856 -7.1250 0.0000 -0.0000 -5.1006 30.7866 1.7773 -0.0000 0.0000 0.0000 72.3433 6.1640 39.8478 -51.8062 53.6985 -27.6232 0.0000 -0.0000 -1.1842 -21.8886 -2.3371 0.9386 7.1250 -0.0000 -0.0000 3.8001 -32.4826 1.1670
17.8497 15.0399 39.3378 181.8210 -18.8443 -154.5450 0.0000 0.0000 0.0000 -11.6522 -5.6042 -41.9846 20.4052 19.9961 91.1848 0.0087 -1.5851 -1.8618 0.0614 -1.5982 -4.3965 0.0000 0.0000 0.0000 17.2664 3.7099 -40.4254 -11.6233 -18.2268 64.7898 -2.9842 -3.9513 -34.2120 -6.1495 14.5717 -45.5790 3.4970 1.9036 19.6578 2.8425 3.4069 -0.0613 0.1889 1.3953 -11.1054 -3.1782 -1.5924 -17.5734 -8.3740 -1.0779 5.4252 -2.2235 -1.3597 4.4483 -0.0000 0.0000 0.0000 -86.3496 12.4524 23.7638 36.1987 -45.6494 -15.6644 -0.0000 0.0000 -10.8228 21.0651 0.5450 0.2099 -7.1250 0.0000 -0.0000 -4.3598 30.5480 1.5427 -0.0000 0.0000 0.0000 72.7154 7.9927 40.7700 -54.7265 54.7326 -29.9926 0.0000 -0.0000 -1.2447 -22.1048 -2.1795 0.8849 7.1250 -0.0000 -0.0000 3.6168 -32.3181 1.1249
17.7860 14.9865 39.0120 181.6620 -19.0066 -154.7620 0.0000 0.0000 0.0000 -11.0213 -5.3802 -45.4113 21.2798 19.9607 93.7442 0.0393 -2.7091 -3.7379 0.1985 -2.8691 -7.9145 0.0000 0.0000 0.0000 17.5474 2.9075 -38.2721 -11.3334 -18.0944 63.8596 -3.2410 -3.4796 -35.3872 -6.0485 14.4752 -45.1761 3.4745 2.1459 19.6918 2.6143 3.7177 -0.1229 -0.1416 1.5390 -11.1738 -3.4538 -1.8154 -17.4629 -8.6185 -1.2592 5.9802 -2.2787 -1.4925 4.6020 0.0000 0.0000 0.0000 -85.2690 13.9501 21.1294 34.5203 -44.4665 -14.4763 -0.0000 0.0000 -11.1768 21.9853 0.6272 0.2532 -7.1250 0.0000 -0.0000 -3.6351 30.6451 1.2768 0.0000 0.0000 0.0000 73.0498 9.6068 41.7531 -58.4620 55.8860 -33.0645 0.0000 -0.0000 -1.6510 -21.8689 -1.8382 0.7376 7.1250 -0.0000 -0.0000 3.7877 -31.9459 1.2122
